<svg t="1673184773215" class="icon" viewBox="0 0 1024 1024" version="1.1" xmlns="http://www.w3.org/2000/svg" p-id="5083" width="200" height="200"><path d="M512 512m-414 0a414 414 0 1 0 828 0 414 414 0 1 0-828 0Z" fill="#F0C48A" p-id="5084"></path><path d="M512 11.8C235.8 11.8 11.8 235.8 11.8 512s224 500.2 500.2 500.2 500.2-224 500.2-500.2S788.2 11.8 512 11.8z m0 791.8c-161 0-291.6-130.6-291.6-291.6S351 220.4 512 220.4 803.6 351 803.6 512 673 803.6 512 803.6z" fill="#D3E6F8" p-id="5085"></path><path d="M512 1012.2c276.2 0 500.2-224 500.2-500.2H803.6c0 161-130.6 291.6-291.6 291.6S220.4 673 220.4 512H11.8c0 276.2 224 500.2 500.2 500.2zM438.2 415.4c-9.4 0-17-7.6-17-17v-102.8c0-9.4 7.6-17 17-17s17 7.6 17 17v102.8c0 9.4-7.6 17-17 17zM512 415.4c-9.4 0-17-7.6-17-17v-102.8c0-9.4 7.6-17 17-17s17 7.6 17 17v102.8c0 9.4-7.6 17-17 17zM585.8 415.4c-9.4 0-17-7.6-17-17v-102.8c0-9.4 7.6-17 17-17s17 7.6 17 17v102.8c-0.2 9.4-7.8 17-17 17z" fill="#FD919E" p-id="5086"></path><path d="M438.2 745.2c-9.4 0-17-7.6-17-17v-102.8c0-9.4 7.6-17 17-17s17 7.6 17 17v102.8c0 9.4-7.6 17-17 17zM512 745.2c-9.4 0-17-7.6-17-17v-102.8c0-9.4 7.6-17 17-17s17 7.6 17 17v102.8c0 9.4-7.6 17-17 17zM585.8 745.2c-9.4 0-17-7.6-17-17v-102.8c0-9.4 7.6-17 17-17s17 7.6 17 17v102.8c-0.2 9.4-7.8 17-17 17zM608.6 438.2c0-9.4 7.6-17 17-17h102.8c9.4 0 17 7.6 17 17s-7.6 17-17 17h-102.8c-9.4 0-17-7.6-17-17zM608.6 512c0-9.4 7.6-17 17-17h102.8c9.4 0 17 7.6 17 17s-7.6 17-17 17h-102.8c-9.4 0-17-7.6-17-17zM608.6 585.8c0-9.4 7.6-17 17-17h102.8c9.4 0 17 7.6 17 17s-7.6 17-17 17h-102.8c-9.4-0.2-17-7.8-17-17z" fill="#FD919E" p-id="5087"></path><path d="M278.8 438.2c0-9.4 7.6-17 17-17h102.8c9.4 0 17 7.6 17 17s-7.6 17-17 17h-102.8c-9.4 0-17-7.6-17-17zM278.8 512c0-9.4 7.6-17 17-17h102.8c9.4 0 17 7.6 17 17s-7.6 17-17 17h-102.8c-9.4 0-17-7.6-17-17zM278.8 585.8c0-9.4 7.6-17 17-17h102.8c9.4 0 17 7.6 17 17s-7.6 17-17 17h-102.8c-9.4-0.2-17-7.8-17-17z" fill="#FD919E" p-id="5088"></path><path d="M438.2 427.2c-15.8 0-28.6-12.8-28.6-28.6v-102.8c0-15.8 12.8-28.6 28.6-28.6s28.6 12.8 28.6 28.6v102.8c0.2 15.6-12.8 28.6-28.6 28.6z m0-136.8c-2.8 0-5.2 2.4-5.2 5.2v102.8c0 2.8 2.4 5.2 5.2 5.2 2.8 0 5.2-2.4 5.2-5.2v-102.8c0.2-2.8-2.2-5.2-5.2-5.2zM512 427.2c-15.8 0-28.6-12.8-28.6-28.6v-102.8c0-15.8 12.8-28.6 28.6-28.6s28.6 12.8 28.6 28.6v102.8c0 15.6-12.8 28.6-28.6 28.6z m0-136.8c-2.8 0-5.2 2.4-5.2 5.2v102.8c0 2.8 2.4 5.2 5.2 5.2 2.8 0 5.2-2.4 5.2-5.2v-102.8c0-2.8-2.4-5.2-5.2-5.2zM585.8 427.2c-15.8 0-28.6-12.8-28.6-28.6v-102.8c0-15.8 12.8-28.6 28.6-28.6s28.6 12.8 28.6 28.6v102.8c0 15.6-12.8 28.6-28.6 28.6z m0-136.8c-2.8 0-5.2 2.4-5.2 5.2v102.8c0 2.8 2.4 5.2 5.2 5.2s5.2-2.4 5.2-5.2v-102.8c0-2.8-2.4-5.2-5.2-5.2z" fill="#4C4372" p-id="5089"></path><path d="M438.2 757c-15.8 0-28.6-12.8-28.6-28.6v-102.8c0-15.8 12.8-28.6 28.6-28.6s28.6 12.8 28.6 28.6v102.8c0.2 15.6-12.8 28.6-28.6 28.6z m0-136.8c-2.8 0-5.2 2.4-5.2 5.2v102.8c0 2.8 2.4 5.2 5.2 5.2 2.8 0 5.2-2.4 5.2-5.2v-102.8c0.2-2.8-2.2-5.2-5.2-5.2zM512 757c-15.8 0-28.6-12.8-28.6-28.6v-102.8c0-15.8 12.8-28.6 28.6-28.6s28.6 12.8 28.6 28.6v102.8c0 15.6-12.8 28.6-28.6 28.6z m0-136.8c-2.8 0-5.2 2.4-5.2 5.2v102.8c0 2.8 2.4 5.2 5.2 5.2 2.8 0 5.2-2.4 5.2-5.2v-102.8c0-2.8-2.4-5.2-5.2-5.2zM585.8 757c-15.8 0-28.6-12.8-28.6-28.6v-102.8c0-15.8 12.8-28.6 28.6-28.6s28.6 12.8 28.6 28.6v102.8c0 15.6-12.8 28.6-28.6 28.6z m0-136.8c-2.8 0-5.2 2.4-5.2 5.2v102.8c0 2.8 2.4 5.2 5.2 5.2s5.2-2.4 5.2-5.2v-102.8c0-2.8-2.4-5.2-5.2-5.2z" fill="#4C4372" p-id="5090"></path><path d="M728.2 467h-102.8c-15.8 0-28.6-12.8-28.6-28.6s12.8-28.6 28.6-28.6h102.8c15.8 0 28.6 12.8 28.6 28.6 0.2 15.8-12.8 28.6-28.6 28.6z m-102.6-34c-2.8 0-5.2 2.4-5.2 5.2 0 2.8 2.4 5.2 5.2 5.2h102.8c2.8 0 5.2-2.4 5.2-5.2 0-2.8-2.4-5.2-5.2-5.2h-102.8zM728.2 540.6h-102.8c-15.8 0-28.6-12.8-28.6-28.6s12.8-28.6 28.6-28.6h102.8c15.8 0 28.6 12.8 28.6 28.6s-12.8 28.6-28.6 28.6z m-102.6-33.8c-2.8 0-5.2 2.4-5.2 5.2 0 2.8 2.4 5.2 5.2 5.2h102.8c2.8 0 5.2-2.4 5.2-5.2 0-2.8-2.4-5.2-5.2-5.2h-102.8zM728.2 614.4h-102.8c-15.8 0-28.6-12.8-28.6-28.6s12.8-28.6 28.6-28.6h102.8c15.8 0 28.6 12.8 28.6 28.6s-12.8 28.6-28.6 28.6z m-102.6-34c-2.8 0-5.2 2.4-5.2 5.2 0 2.8 2.4 5.2 5.2 5.2h102.8c2.8 0 5.2-2.4 5.2-5.2 0-2.8-2.4-5.2-5.2-5.2h-102.8z" fill="#4C4372" p-id="5091"></path><path d="M398.4 467h-102.8c-15.8 0-28.6-12.8-28.6-28.6s12.8-28.6 28.6-28.6h102.8c15.8 0 28.6 12.8 28.6 28.6 0.2 15.8-12.8 28.6-28.6 28.6z m-102.6-34c-2.8 0-5.2 2.4-5.2 5.2 0 2.8 2.4 5.2 5.2 5.2h102.8c2.8 0 5.2-2.4 5.2-5.2 0-2.8-2.4-5.2-5.2-5.2h-102.8zM398.4 540.6h-102.8c-15.8 0-28.6-12.8-28.6-28.6s12.8-28.6 28.6-28.6h102.8c15.8 0 28.6 12.8 28.6 28.6s-12.8 28.6-28.6 28.6z m-102.6-33.8c-2.8 0-5.2 2.4-5.2 5.2 0 2.8 2.4 5.2 5.2 5.2h102.8c2.8 0 5.2-2.4 5.2-5.2 0-2.8-2.4-5.2-5.2-5.2h-102.8zM398.4 614.4h-102.8c-15.8 0-28.6-12.8-28.6-28.6s12.8-28.6 28.6-28.6h102.8c15.8 0 28.6 12.8 28.6 28.6s-12.8 28.6-28.6 28.6z m-102.6-34c-2.8 0-5.2 2.4-5.2 5.2 0 2.8 2.4 5.2 5.2 5.2h102.8c2.8 0 5.2-2.4 5.2-5.2 0-2.8-2.4-5.2-5.2-5.2h-102.8z" fill="#4C4372" p-id="5092"></path><path d="M625 670.2h-226c-24.8 0-45-20.2-45-45V399c0-24.8 20.2-45 45-45h226.2c24.8 0 45 20.2 45 45v226.2c0 24.8-20.2 45-45.2 45z" fill="#D3E6F8" p-id="5093"></path><path d="M626.4 353.8V670c24.2-0.6 43.8-20.6 43.8-45v-226c0-24.6-19.6-44.4-43.8-45.2z" fill="#A4CFF2" p-id="5094"></path><path d="M549 404.2l-104 104h52l-39.8 111.6 121.8-107.8h-56.2z" fill="#FD919E" p-id="5095"></path><path d="M457.2 631.6c-2.2 0-4.6-0.6-6.6-2-4.4-3-6.2-8.6-4.4-13.6l34.2-96h-35.4c-4.8 0-9-2.8-10.8-7.2-1.8-4.4-0.8-9.4 2.6-12.8l104-104c3.8-3.8 9.4-4.6 14-2 4.6 2.6 6.8 7.8 5.6 13l-22.6 93.4h41.2c4.8 0 9.2 3 11 7.6 1.8 4.6 0.4 9.8-3.2 13l-122 107.8c-2 1.8-4.8 2.8-7.6 2.8z m16-135h23.8c3.8 0 7.4 1.8 9.6 5s2.8 7.2 1.4 10.6l-24.6 68.6 64.6-57.2h-25.2c-3.6 0-7-1.6-9.2-4.4-2.2-2.8-3-6.6-2.2-10l16.4-67.2-54.6 54.6z" fill="#4C4372" p-id="5096"></path><path d="M625 682h-226c-31.4 0-56.8-25.4-56.8-56.8V399c0-31.4 25.4-56.8 56.8-56.8h226.2c31.4 0 56.8 25.4 56.8 56.8v226.2c0 31.2-25.6 56.8-57 56.8z m-226-316.4c-18.4 0-33.4 15-33.4 33.4v226.2c0 18.4 15 33.4 33.4 33.4h226.2c18.4 0 33.4-15 33.4-33.4V399c0-18.4-15-33.4-33.4-33.4H399z" fill="#4C4372" p-id="5097"></path><path d="M512 1024c-136.8 0-265.4-53.2-362-150C53.2 777.4 0 648.8 0 512S53.2 246.6 150 150C246.6 53.2 375.2 0 512 0s265.4 53.2 362 150c96.8 96.8 150 225.2 150 362s-53.2 265.4-150 362c-96.6 96.8-225.2 150-362 150z m0-1000.6c-130.4 0-253.2 50.8-345.4 143C74.2 258.8 23.4 381.6 23.4 512s50.8 253.2 143 345.4c92.2 92.2 215 143 345.4 143s253.2-50.8 345.4-143c92.2-92.2 143-215 143-345.4s-50.8-253.2-143-345.4c-92-92.4-214.8-143.2-345.2-143.2z" fill="#4C4372" p-id="5098"></path><path d="M512 815.4c-167.2 0-303.4-136-303.4-303.4s136-303.4 303.4-303.4 303.4 136 303.4 303.4S679.2 815.4 512 815.4z m0-583.2c-154.4 0-279.8 125.6-279.8 279.8 0 154.4 125.6 279.8 279.8 279.8S791.8 666.4 791.8 512 666.4 232.2 512 232.2z" fill="#4C4372" p-id="5099"></path><path d="M220.4 523.8H11.8c-6.4 0-11.8-5.2-11.8-11.8 0-6.4 5.2-11.8 11.8-11.8h208.6c6.4 0 11.8 5.2 11.8 11.8 0 6.4-5.4 11.8-11.8 11.8z" fill="#4C4372" p-id="5100"></path><path d="M1012.2 523.8H803.6c-6.4 0-11.8-5.2-11.8-11.8 0-6.4 5.2-11.8 11.8-11.8h208.6c6.4 0 11.8 5.2 11.8 11.8 0 6.4-5.2 11.8-11.8 11.8z" fill="#4C4372" p-id="5101"></path></svg>
